<?xml version="1.0" encoding="UTF-8"?>
<svg xmlns="http://www.w3.org/2000/svg" viewBox="30 3 160 30" width="160" height="30" role="img" aria-label="Ourfitness">
  <title>Ourfitness</title>
  <desc>Ourfitness Studio wordmark — Our in orange, fitness in blue italic.</desc>
  <g transform="translate(30.862 31.800) scale(0.156768)">
    <path fill="#FAB31B" d="M12.73486328125 -102.056640625Q12.73486328125 -124.041015625 19.310546875 -138.958984375Q24.2177734375 -149.951171875 32.707275390625 -158.68603515625Q41.19677734375 -167.4208984375 51.3056640625 -171.64111328125Q64.75146484375 -177.33349609375 82.3193359375 -177.33349609375Q114.1181640625 -177.33349609375 133.207275390625 -157.6064453125Q152.29638671875 -137.87939453125 152.29638671875 -102.74365234375Q152.29638671875 -67.90234375 133.3544921875 -48.224365234375Q114.41259765625 -28.54638671875 82.7119140625 -28.54638671875Q50.61865234375 -28.54638671875 31.6767578125 -48.126220703125Q12.73486328125 -67.7060546875 12.73486328125 -102.056640625ZM42.6689453125 -103.0380859375Q42.6689453125 -78.60009765625 53.95556640625 -65.988525390625Q65.2421875 -53.376953125 82.61376953125 -53.376953125Q99.9853515625 -53.376953125 111.124755859375 -65.890380859375Q122.26416015625 -78.40380859375 122.26416015625 -103.4306640625Q122.26416015625 -128.1630859375 111.419189453125 -140.3330078125Q100.57421875 -152.5029296875 82.61376953125 -152.5029296875Q64.6533203125 -152.5029296875 53.6611328125 -140.185791015625Q42.6689453125 -127.86865234375 42.6689453125 -103.0380859375Z"/>
    <path fill="#FAB31B" d="M243.0302734375 -31.0V-46.60498046875Q237.337890625 -38.2626953125 228.063232421875 -33.45361328125Q218.78857421875 -28.64453125 208.4833984375 -28.64453125Q197.98193359375 -28.64453125 189.6396484375 -33.25732421875Q181.29736328125 -37.8701171875 177.56787109375 -46.21240234375Q173.83837890625 -54.5546875 173.83837890625 -69.2763671875V-135.2294921875H201.4169921875V-87.3349609375Q201.4169921875 -65.3505859375 202.938232421875 -60.394287109375Q204.45947265625 -55.43798828125 208.4833984375 -52.542724609375Q212.50732421875 -49.6474609375 218.6904296875 -49.6474609375Q225.7568359375 -49.6474609375 231.35107421875 -53.524169921875Q236.9453125 -57.40087890625 239.00634765625 -63.142333984375Q241.0673828125 -68.8837890625 241.0673828125 -91.2607421875V-135.2294921875H268.64599609375V-31.0Z"/>
    <path fill="#FAB31B" d="M323.828125 -31.0H296.24951171875V-135.2294921875H321.865234375V-120.40966796875Q328.44091796875 -130.9111328125 333.691650390625 -134.248046875Q338.9423828125 -137.5849609375 345.6162109375 -137.5849609375Q355.0380859375 -137.5849609375 363.77294921875 -132.38330078125L355.234375 -108.337890625Q348.26611328125 -112.8525390625 342.279296875 -112.8525390625Q336.48876953125 -112.8525390625 332.46484375 -109.662841796875Q328.44091796875 -106.47314453125 326.134521484375 -98.130859375Q323.828125 -89.78857421875 323.828125 -63.19140625Z"/>
    <path fill="#224097" d="M435.6748046875 -135.2294921875 431.3564453125 -114.619140625H411.43310546875L393.96337890625 -31.0H365.7958984375L383.265625 -114.619140625H367.5625L371.880859375 -135.2294921875H387.583984375L389.84130859375 -145.92724609375Q392.58935546875 -159.07861328125 395.04296875 -163.69140625Q398.3798828125 -169.97265625 405.004638671875 -173.653076171875Q411.62939453125 -177.33349609375 422.3271484375 -177.33349609375Q435.2822265625 -177.33349609375 449.611328125 -172.62255859375L444.115234375 -152.5029296875Q434.00634765625 -155.93798828125 427.72509765625 -155.93798828125Q422.916015625 -155.93798828125 420.560546875 -152.8955078125Q418.990234375 -150.9326171875 417.32177734375 -142.59033203125L415.75146484375 -135.2294921875Z"/>
    <path fill="#224097" d="M460.080078125 -174.8798828125H488.24755859375L482.94775390625 -149.3623046875H454.7802734375ZM451.8359375 -135.2294921875H480.00341796875L458.21533203125 -31.0H430.0478515625Z"/>
    <path fill="#224097" d="M493.1142578125 -114.32470703125 497.4326171875 -135.2294921875H511.1728515625L514.60791015625 -151.9140625L546.8974609375 -171.3466796875L539.34033203125 -135.2294921875H556.515625L552.197265625 -114.32470703125H534.923828125L525.79638671875 -70.650390625Q523.3427734375 -58.77490234375 523.3427734375 -57.1064453125Q523.3427734375 -53.86767578125 525.40380859375 -52.052001953125Q527.46484375 -50.236328125 532.86279296875 -50.236328125Q534.7275390625 -50.236328125 542.1865234375 -50.92333984375L537.77001953125 -30.0185546875Q530.50732421875 -28.54638671875 522.85205078125 -28.54638671875Q507.93408203125 -28.54638671875 501.162109375 -34.287841796875Q494.39013671875 -40.029296875 494.39013671875 -50.236328125Q494.39013671875 -55.04541015625 498.021484375 -72.4169921875L506.75634765625 -114.32470703125Z"/>
    <path fill="#224097" d="M575.228515625 -135.2294921875H601.923828125L599.17578125 -121.685546875Q609.1865234375 -130.322265625 617.872314453125 -134.002685546875Q626.55810546875 -137.68310546875 636.17626953125 -137.68310546875Q649.033203125 -137.68310546875 656.443115234375 -130.322265625Q663.85302734375 -122.96142578125 663.85302734375 -110.79150390625Q663.85302734375 -105.29541015625 660.6142578125 -89.98486328125L648.34619140625 -31.0H620.1787109375L632.544921875 -90.18115234375Q635.29296875 -103.4306640625 635.29296875 -105.982421875Q635.29296875 -111.38037109375 632.103271484375 -114.471923828125Q628.91357421875 -117.5634765625 623.22119140625 -117.5634765625Q617.0380859375 -117.5634765625 609.48095703125 -112.36181640625Q601.923828125 -107.16015625 597.60546875 -98.62158203125Q594.46484375 -92.53662109375 590.5390625 -73.791015625L581.60791015625 -31.0H553.4404296875Z"/>
    <path fill="#224097" d="M777.529296875 -74.3798828125H706.865234375Q706.76708984375 -72.71142578125 706.76708984375 -71.828125Q706.76708984375 -61.4248046875 712.704833984375 -55.04541015625Q718.642578125 -48.666015625 727.18115234375 -48.666015625Q741.2158203125 -48.666015625 749.0673828125 -63.19140625L774.29052734375 -58.97119140625Q766.9296875 -43.7587890625 754.612548828125 -36.152587890625Q742.29541015625 -28.54638671875 726.98486328125 -28.54638671875Q705.98193359375 -28.54638671875 692.83056640625 -41.844970703125Q679.67919921875 -55.1435546875 679.67919921875 -77.02978515625Q679.67919921875 -98.42529296875 691.5546875 -115.10986328125Q707.74853515625 -137.68310546875 737.78076171875 -137.68310546875Q756.9189453125 -137.68310546875 768.20556640625 -125.856689453125Q779.4921875 -114.0302734375 779.4921875 -92.73291015625Q779.4921875 -82.52587890625 777.529296875 -74.3798828125ZM753.7783203125 -91.55517578125Q753.87646484375 -93.419921875 753.87646484375 -94.4013671875Q753.87646484375 -105.982421875 748.6748046875 -111.77294921875Q743.47314453125 -117.5634765625 734.73828125 -117.5634765625Q726.00341796875 -117.5634765625 719.084228515625 -110.98779296875Q712.1650390625 -104.412109375 709.71142578125 -91.55517578125Z"/>
    <path fill="#224097" d="M784.41650390625 -60.14892578125 811.70068359375 -64.46728515625Q815.33203125 -55.83056640625 820.72998046875 -52.248291015625Q826.1279296875 -48.666015625 835.45166015625 -48.666015625Q845.06982421875 -48.666015625 850.8603515625 -52.984375Q854.88427734375 -55.9287109375 854.88427734375 -60.14892578125Q854.88427734375 -62.9951171875 852.8232421875 -65.25244140625Q850.6640625 -67.41162109375 841.14404296875 -70.55224609375Q815.62646484375 -78.99267578125 809.54150390625 -83.89990234375Q800.021484375 -91.55517578125 800.021484375 -103.92138671875Q800.021484375 -116.28759765625 809.2470703125 -125.21875Q822.10400390625 -137.68310546875 847.42529296875 -137.68310546875Q867.544921875 -137.68310546875 877.85009765625 -130.322265625Q888.1552734375 -122.96142578125 890.9033203125 -110.39892578125L864.89501953125 -105.88427734375Q862.833984375 -111.57666015625 858.22119140625 -114.4228515625Q851.93994140625 -118.25048828125 843.10693359375 -118.25048828125Q834.27392578125 -118.25048828125 830.397216796875 -115.30615234375Q826.5205078125 -112.36181640625 826.5205078125 -108.5341796875Q826.5205078125 -104.6083984375 830.4462890625 -102.056640625Q832.89990234375 -100.486328125 846.24755859375 -96.560546875Q866.85791015625 -90.57373046875 873.826171875 -84.783203125Q883.640625 -76.63720703125 883.640625 -65.154296875Q883.640625 -50.33447265625 871.17626953125 -39.4404296875Q858.7119140625 -28.54638671875 836.04052734375 -28.54638671875Q813.46728515625 -28.54638671875 801.150146484375 -36.839599609375Q788.8330078125 -45.1328125 784.41650390625 -60.14892578125Z"/>
    <path fill="#224097" d="M896.41650390625 -60.14892578125 923.70068359375 -64.46728515625Q927.33203125 -55.83056640625 932.72998046875 -52.248291015625Q938.1279296875 -48.666015625 947.45166015625 -48.666015625Q957.06982421875 -48.666015625 962.8603515625 -52.984375Q966.88427734375 -55.9287109375 966.88427734375 -60.14892578125Q966.88427734375 -62.9951171875 964.8232421875 -65.25244140625Q962.6640625 -67.41162109375 953.14404296875 -70.55224609375Q927.62646484375 -78.99267578125 921.54150390625 -83.89990234375Q912.021484375 -91.55517578125 912.021484375 -103.92138671875Q912.021484375 -116.28759765625 921.2470703125 -125.21875Q934.10400390625 -137.68310546875 959.42529296875 -137.68310546875Q979.544921875 -137.68310546875 989.85009765625 -130.322265625Q1000.1552734375 -122.96142578125 1002.9033203125 -110.39892578125L976.89501953125 -105.88427734375Q974.833984375 -111.57666015625 970.22119140625 -114.4228515625Q963.93994140625 -118.25048828125 955.10693359375 -118.25048828125Q946.27392578125 -118.25048828125 942.397216796875 -115.30615234375Q938.5205078125 -112.36181640625 938.5205078125 -108.5341796875Q938.5205078125 -104.6083984375 942.4462890625 -102.056640625Q944.89990234375 -100.486328125 958.24755859375 -96.560546875Q978.85791015625 -90.57373046875 985.826171875 -84.783203125Q995.640625 -76.63720703125 995.640625 -65.154296875Q995.640625 -50.33447265625 983.17626953125 -39.4404296875Q970.7119140625 -28.54638671875 948.04052734375 -28.54638671875Q925.46728515625 -28.54638671875 913.150146484375 -36.839599609375Q900.8330078125 -45.1328125 896.41650390625 -60.14892578125Z"/>
  </g>
</svg>
